# xmcd
#
# Track frame offsets:
# 150
# 14533
# 33083
# 49114
# 61581
# 76420
# 90358
# 107742
# 119860
# 132442
# 147742
# 162558
# 175615
# 188971
# 199138
# 216260
# 230747
# 244687
# 258014
# 271370
# 282505
#
# Disc length: 3932 seconds
#
#
# Revision: 0
# Processed by: cddbd v1.5.2PL0 Copyright (c) Steve Scherf et al.
# Submitted via: FreeRIP 2.945 
#
DISCID=370f5a15
DTITLE=Varios - Rancho Grande Volumen 67
DYEAR=2007
DGENRE=Latin
TTITLE0=Cuanto me Gusta Este Rancho-Valentín Elizalde
TTITLE1=La Ótra Cara de la Moneda-La Arrolladora Banda el Limón
TTITLE2=Procuro Olvidarte-Kpaz de la Sierra
TTITLE3=La Dieta-Banda Fresa Roja
TTITLE4=Mañana que ya no Esté-Banda La Peña
TTITLE5=A mis Enemigos-Valentín Elizalde
TTITLE6=La Tragedia del Vaquero-Vicente Fernández
TTITLE7=Al mil por Úno-Chuy Chávez
TTITLE8=Mas Allá del Sol-Joán Sebástian
TTITLE9=Algo Mas-Ulises Quintero
TTITLE10=Solo Diós-Valentín Elizalde
TTITLE11=Quiero Bailar-Banda Vergelitos
TTITLE12=Prefiero la Calle-Lupillo Rivera
TTITLE13=Por mi que se Vaya-Tigrillo Palma
TTITLE14=Compárame-La Srrolladora Banda el Limón
TTITLE15=Te va a Doler-Nico Flores
TTITLE16=Vencedor-Valentín Elizalde
TTITLE17=A Cada Instante-Julio Chaidez
TTITLE18=Tus Palabras-Banda el Recodo
TTITLE19=Ni Todo el Amór ni Todo el Dinero-El Chapo de Sinalóa
TTITLE20=Cumbia Caliente-Banda Pura Caña
EXTD=Chinguen a su madre todos los que cantan en este puto y disco y los que lo oyen por nacos
EXTT0=
EXTT1=
EXTT2=
EXTT3=
EXTT4=
EXTT5=
EXTT6=
EXTT7=
EXTT8=
EXTT9=
EXTT10=
EXTT11=
EXTT12=
EXTT13=
EXTT14=
EXTT15=
EXTT16=
EXTT17=
EXTT18=
EXTT19=
EXTT20=
PLAYORDER=
